<?xml version="1.0" encoding="UTF-8" standalone="no"?>
<svg width="456" height="456" viewBox="0 0 456 456" version="1.1" xmlns="http://www.w3.org/2000/svg">
    <path d="M228 32.5c-20.5 0-40.3 3.5-58.7 9.9-18.4 6.4-35.4 15.7-50.5 27.3-15.1 11.6-28.1 25.4-38.5 41.1-10.4 15.7-18 32.9-22.5 51.1-4.5 18.2-5.9 37-4.1 55.6 1.8 18.6 6.8 36.7 14.8 53.5 8 16.8 19 32.1 32.5 45.3 13.5 13.2 29.1 23.9 46.2 31.5" 
          fill="none" stroke="white" stroke-width="20"/>
    <path d="M228 32.5c20.5 0 40.3 3.5 58.7 9.9 18.4 6.4 35.4 15.7 50.5 27.3 15.1 11.6 28.1 25.4 38.5 41.1 10.4 15.7 18 32.9 22.5 51.1 4.5 18.2 5.9 37 4.1 55.6-1.8 18.6-6.8 36.7-14.8 53.5-8 16.8-19 32.1-32.5 45.3-13.5 13.2-29.1 23.9-46.2 31.5" 
          fill="none" stroke="white" stroke-width="20"/>
    <rect x="198" y="120" width="60" height="216" rx="10" fill="white"/>
    <rect x="120" y="198" width="216" height="60" rx="10" fill="white"/>
</svg> 